# xmcd
#
# Track frame offsets: 
#        150
#        22910
#        43264
#        61987
#        86118
#        105711
#        124451
#        145089
#        166061
#        184330
#        206486
#
# Disc length: 2924 seconds
#
# Revision: 1
# Processed by: cddbd v1.5.2PL0 Copyright (c) Steve Scherf et al.
# Submitted via: ExactAudioCopy v0.99pb4
#
DISCID=9a0b6a0b
DTITLE=Vieux Farka Touré - Fondo
DYEAR=2009
DGENRE=Blues
TTITLE0=Fafa
TTITLE1=Aï Haïra
TTITLE2=Souba Souba
TTITLE3=Sarama
TTITLE4=Walé
TTITLE5=Slow Jam
TTITLE6=Mali
TTITLE7=Diaraby Magni
TTITLE8=Chérie Lé
TTITLE9=Paradise
TTITLE10=Fafa (Reprise)
EXTD=
EXTT0=
EXTT1=
EXTT2=
EXTT3=
EXTT4=
EXTT5=
EXTT6=
EXTT7=
EXTT8=
EXTT9=
EXTT10=
PLAYORDER=
